<svg xmlns="http://www.w3.org/2000/svg" version="1.1" xmlns:xlink="http://www.w3.org/1999/xlink" xmlns:svgjs="http://svgjs.dev/svgjs" width="2000" height="464" viewBox="0 0 2000 464"><g transform="matrix(1,0,0,1,-1.2121212121212466,-1.13618138625921)"><svg viewBox="0 0 396 92" data-background-color="#000000" preserveAspectRatio="xMidYMid meet" height="464" width="2000" xmlns="http://www.w3.org/2000/svg" xmlns:xlink="http://www.w3.org/1999/xlink"><g id="tight-bounds" transform="matrix(1,0,0,1,0.2400000000000091,0.2252773438272584)"><svg viewBox="0 0 395.52 91.54944531234551" height="91.54944531234551" width="395.52"><g><svg viewBox="0 0 553.3795784910537 128.08857569284874" height="91.54944531234551" width="395.52"><g transform="matrix(1,0,0,1,157.85957849105372,17.702545555234522)"><svg viewBox="0 0 395.52 92.68348458237969" height="92.68348458237969" width="395.52"><g id="textblocktransform"><svg viewBox="0 0 395.52 92.68348458237969" height="92.68348458237969" width="395.52" id="textblock"><g><svg viewBox="0 0 395.52 49.98904283447911" height="49.98904283447911" width="395.52"><g transform="matrix(1,0,0,1,0,0)"><svg width="395.52" viewBox="0.1 -40.16 323.14 40.839999999999996" height="49.98904283447911" data-palette-color="#6d2687"><path d="M26 0L12.84 0Q12.01 0 12.01-0.49L12.01-0.49 12.01-0.73Q12.01-1.12 12.73-1.21 13.45-1.29 13.67-1.32L13.67-1.32Q15.53-1.51 16.28-2.23 17.04-2.95 17.04-4.39L17.04-4.39 17.04-12.48Q17.04-12.65 16.97-12.84L16.97-12.84 6.98-28.76Q4.64-32.5 2.34-33.06L2.34-33.06Q2.22-33.08 1.9-33.15 1.59-33.23 0.49-33.4L0.49-33.4Q0.1-33.47 0.1-33.95 0.1-34.42 0.46-34.42L0.46-34.42 14.43-34.42Q14.84-34.42 14.84-33.94 14.84-33.45 14.43-33.45L14.43-33.45Q12.79-33.28 12.26-33.11L12.26-33.11Q11.04-32.67 11.04-31.54L11.04-31.54Q11.04-30.96 11.33-30.49L11.33-30.49 19.58-17.31Q19.85-16.92 19.91-16.81 19.97-16.7 20.18-16.7 20.39-16.7 20.83-17.41L20.83-17.41 27.42-28.61Q27.71-29.2 28.09-29.87 28.47-30.54 28.47-31.25L28.47-31.25Q28.47-33.03 26.03-33.35L26.03-33.35Q25.15-33.47 25.07-33.62 25-33.76 25-33.98L25-33.98Q25-34.42 25.42-34.42L25.42-34.42 36.82-34.42Q37.16-34.42 37.16-34.08 37.16-33.74 37.05-33.62 36.94-33.5 36.76-33.44 36.57-33.37 36.35-33.34 36.13-33.3 35.4-33.13L35.4-33.13Q33.69-32.71 31.69-30.42L31.69-30.42Q31.47-30.15 31.45-30.1L31.45-30.1 21.8-13.5 21.8-4.39Q21.8-3.08 22.55-2.32 23.29-1.56 25.06-1.33 26.83-1.1 26.83-0.76L26.83-0.76 26.83-0.49Q26.83 0 26 0L26 0ZM39.11-10.97Q39.11-15.77 42.51-19.23 45.92-22.68 50.68-22.68 55.44-22.68 58.96-19.32 62.47-15.97 62.47-11.04 62.47-6.1 59.14-2.72 55.81 0.66 50.78 0.66 45.75 0.66 42.43-2.76 39.11-6.18 39.11-10.97ZM45.19-4.69L45.19-4.69Q47.58-0.66 51.71-0.66L51.71-0.66Q54.9-0.66 56.6-3.22 58.3-5.79 58.3-9.52 58.3-13.26 55.92-17.19 53.54-21.12 49.51-21.12L49.51-21.12Q46.56-21.12 44.86-18.57 43.16-16.02 43.16-12.1 43.16-8.18 45.19-4.69ZM98.19-7.69L98.19-7.69 98.14-12.84Q98.14-15.99 97.6-17.26 97.07-18.53 96.24-19.18 95.41-19.82 94-19.82 92.6-19.82 88.06-17.63L88.06-17.63Q87.45-17.26 87.42-16.94L87.42-16.94 87.42-3.81Q87.42-1.34 90.06-0.98L90.06-0.98Q91.21-0.81 91.21-0.43 91.21-0.05 90.96 0L90.96 0 80.07 0Q79.83-0.05 79.83-0.34L79.83-0.34Q79.83-0.81 80.98-0.98L80.98-0.98Q83.61-1.34 83.61-3.81L83.61-3.81 83.61-15.97Q83.61-19.8 78.88-19.8L78.88-19.8Q77.14-19.8 74.07-17.75L74.07-17.75Q73.29-17.24 72.92-16.8L72.92-16.8 72.92-3.81Q72.92-1.34 75.56-0.98L75.56-0.98Q76.7-0.81 76.7-0.43 76.7-0.05 76.46 0L76.46 0 65.57 0Q65.33-0.05 65.33-0.34L65.33-0.34Q65.33-0.81 66.47-0.98L66.47-0.98Q69.11-1.34 69.11-3.76L69.11-3.76 69.11-17.82Q69.11-18.85 67.99-19.24L67.99-19.24Q67.5-19.41 66.94-19.52 66.38-19.63 66.05-19.73 65.72-19.82 65.63-19.91 65.55-20 65.55-20.28 65.55-20.56 65.91-20.75L65.91-20.75 72.14-23.68Q72.43-23.83 72.5-23.83L72.5-23.83Q72.92-23.83 72.92-23.24L72.92-23.24 72.92-19.19Q72.94-19.04 73.1-19.04 73.26-19.04 73.91-19.38 74.56-19.73 75.61-20.35 76.66-20.97 78.38-21.8 80.1-22.63 82.03-22.63L82.03-22.63Q85.13-22.63 86.47-19.97L86.47-19.97Q86.98-18.9 87.4-19.06 87.81-19.21 88.69-19.65L88.69-19.65Q90.77-20.68 92.89-21.66 95.01-22.63 96.41-22.63L96.41-22.63Q102.05-22.63 102.05-12.35L102.05-12.35 101.83-5.22 101.83-3.81Q101.83-1.9 103.73-1.32L103.73-1.32Q104.54-1.05 105.28-0.94 106.03-0.83 106.26-0.73 106.49-0.63 106.49-0.34 106.49-0.05 106.25 0L106.25 0 94.48 0Q94.23-0.05 94.23-0.34L94.23-0.34Q94.23-0.81 95.38-0.98L95.38-0.98Q97.99-1.34 97.99-4L97.99-4Q98.19-5.22 98.19-7.69ZM123.38-4.03Q123.38-3.39 123.98-3.02 124.58-2.64 125.36-2.64 126.14-2.64 126.66-3.04 127.19-3.44 127.39-3.44 127.58-3.44 127.58-2.92 127.58-2.39 127.09-2.03L127.09-2.03Q123.43 0.66 122.14 0.66L122.14 0.66Q120.57 0.66 119.6-2.59L119.6-2.59Q119.52-2.83 119.47-2.81L119.47-2.81Q116.45-0.54 115.67-0.07L115.67-0.07Q113.66 1.07 111.65 0.29 109.64-0.49 108.73-2.29L108.73-2.29Q108.29-3.22 108.29-4.27L108.29-4.27Q108.29-6.35 109.83-7.57 111.37-8.79 115.69-9.91L115.69-9.91Q117.16-10.3 118.3-10.91 119.45-11.52 119.51-11.69 119.57-11.87 119.57-12.01L119.57-12.01 119.57-16.7Q119.57-19.46 117.42-20.58L117.42-20.58Q116.72-20.95 115.73-20.95 114.74-20.95 113.73-20.17 112.71-19.38 112.71-17.94L112.71-17.94 112.83-16.99Q112.69-16.7 111.08-16.02 109.47-15.33 109.22-15.28L109.22-15.28Q108.83-15.28 108.83-16.22 108.83-17.16 109.39-18.31 109.95-19.46 110.98-20.41L110.98-20.41Q113.37-22.63 116.45-22.63 119.52-22.63 121.45-20.94 123.38-19.24 123.38-16.89L123.38-16.89 123.38-4.03ZM112.13-4.74Q112.13-3.56 113.03-2.7 113.93-1.83 115.09-1.83 116.25-1.83 117.91-2.82 119.57-3.81 119.57-4.86L119.57-4.86 119.57-9.81Q119.57-10.08 119.45-10.08 119.33-10.08 119.28-10.06L119.28-10.06 113.62-7.42Q112.74-6.79 112.43-6.35 112.13-5.91 112.13-4.74ZM147.82-7.69L147.82-7.69 147.77-12.84Q147.77-15.99 147.23-17.26 146.69-18.53 145.86-19.18 145.03-19.82 143.63-19.82 142.23-19.82 137.69-17.63L137.69-17.63Q137.07-17.26 137.05-16.94L137.05-16.94 137.05-3.81Q137.05-1.34 139.69-0.98L139.69-0.98Q140.83-0.81 140.83-0.43 140.83-0.05 140.59 0L140.59 0 129.7 0Q129.46-0.05 129.46-0.34L129.46-0.34Q129.46-0.81 130.61-0.98L130.61-0.98Q133.24-1.34 133.24-3.81L133.24-3.81 133.24-17.82Q133.24-18.85 132.12-19.24L132.12-19.24Q131.63-19.41 131.07-19.52 130.51-19.63 130.18-19.73 129.85-19.82 129.76-19.91 129.68-20 129.68-20.28 129.68-20.56 130.04-20.75L130.04-20.75 136.27-23.68Q136.56-23.83 136.64-23.83L136.64-23.83Q137.05-23.83 137.05-23.24L137.05-23.24 137.05-19.43Q137.12-19.19 137.25-19.19L137.25-19.19Q137.39-19.19 138.3-19.63L138.3-19.63Q140.4-20.68 142.52-21.66 144.64-22.63 146.03-22.63L146.03-22.63Q151.67-22.63 151.67-12.35L151.67-12.35 151.45-5.22 151.45-3.81Q151.45-1.9 153.36-1.32L153.36-1.32Q154.16-1.05 154.91-0.94 155.65-0.83 155.89-0.73 156.12-0.63 156.12-0.34 156.12-0.05 155.87 0L155.87 0 144.11 0Q143.86-0.05 143.86-0.34L143.86-0.34Q143.86-0.81 145.01-0.98L145.01-0.98Q147.62-1.34 147.62-4L147.62-4Q147.82-5.22 147.82-7.69ZM171.59-18.77L164.25-18.77Q164.1-18.77 164.1-18.55L164.1-18.55 164.1-5.08Q164.1-3.61 164.75-2.78 165.39-1.95 166.39-1.95 167.39-1.95 168.14-2.28 168.88-2.61 169.43-3 169.98-3.39 170.42-3.72 170.86-4.05 171.2-4.05 171.55-4.05 171.55-3.88L171.55-3.88Q171.55-3.3 171.42-3.13L171.42-3.13Q168.49 0.66 165.77 0.66 163.05 0.66 161.67-1.06 160.29-2.78 160.29-5.18L160.29-5.18 160.29-18.77 158.46-18.77Q157.78-18.77 157.74-19.21 157.7-19.65 157.87-19.78L157.87-19.78Q159.17-20.61 161.44-22.75L161.44-22.75Q161.68-23.02 162.1-23.56 162.51-24.1 163.31-25.02 164.1-25.95 164.51-25.95 164.93-25.95 164.93-25.61L164.93-25.61Q164.93-25.56 164.1-22.41L164.1-22.41Q164.1-21.97 164.49-21.95L164.49-21.95 170.72-21.95Q171.79-21.95 171.79-18.92L171.79-18.92Q171.79-18.77 171.59-18.77L171.59-18.77ZM180.72-39.58L180.72-18.9Q180.72-18.31 180.89-18.31 181.06-18.31 181.14-18.4 181.21-18.48 182.16-19.53L182.16-19.53Q184.92-22.61 187.75-22.61L187.75-22.61Q191.46-22.61 193.2-20.95L193.2-20.95Q195.32-18.85 195.32-13.89L195.32-13.89 195.32-3.71Q195.32-1.32 197.96-0.93L197.96-0.93Q199.11-0.78 199.11-0.42 199.11-0.05 198.86 0L198.86 0 187.97 0Q187.73-0.05 187.73-0.34L187.73-0.34Q187.73-0.78 188.88-0.93L188.88-0.93Q191.51-1.32 191.51-3.71L191.51-3.71 191.51-13.65Q191.51-17.24 191-18.31L191-18.31Q190.02-20.46 186.92-20.46L186.92-20.46Q185.02-20.46 182.87-18.84 180.72-17.21 180.72-15.26L180.72-15.26 180.72-3.71Q180.72-1.32 183.36-0.93L183.36-0.93Q184.51-0.78 184.51-0.42 184.51-0.05 184.26 0L184.26 0 173.37 0Q173.13-0.05 173.13-0.34L173.13-0.34Q173.13-0.78 174.28-0.93L174.28-0.93Q176.91-1.32 176.91-3.71L176.91-3.71 176.91-34.16Q176.91-35.18 175.79-35.57L175.79-35.57Q175.3-35.74 174.74-35.85 174.18-35.96 173.85-36.06 173.52-36.16 173.43-36.24 173.35-36.33 173.35-36.61 173.35-36.89 173.72-37.08L173.72-37.08 179.94-40.01Q180.23-40.16 180.31-40.16L180.31-40.16Q180.72-40.16 180.72-39.58L180.72-39.58ZM218.24 0.05L218.24-2.15Q218.12-2.56 217.93-2.43 217.73-2.29 216.34-1.59L216.34-1.59Q211.77 0.68 208.72 0.68 205.67 0.68 204.33-1.27L204.33-1.27Q203.84-2 203.84-3.08L203.84-3.08 203.84-17.97Q203.77-18.68 203.21-19.19L203.21-19.19Q202.45-19.82 201.63-19.87 200.81-19.92 200.81-20.37 200.81-20.83 201.2-20.92L201.2-20.92 206.79-22.53Q207.09-22.63 207.37-22.63 207.65-22.63 207.65-22.22L207.65-22.22 207.65-5.83Q207.65-4.13 209.16-3.2 210.68-2.27 213.03-2.27 215.39-2.27 217.27-3.71L217.27-3.71Q217.85-4.17 218.24-4.74L218.24-4.74 218.24-17.97Q218.17-18.68 217.61-19.19L217.61-19.19Q216.85-19.82 216.03-19.87 215.22-19.92 215.22-20.37 215.22-20.83 215.61-20.92L215.61-20.92 221.2-22.53Q221.49-22.63 221.77-22.63 222.05-22.63 222.05-22.14L222.05-22.14 222.05-4.81Q222.17-3.74 222.66-3.27 223.15-2.81 224.25-2.81L224.25-2.81 225.67-2.91Q225.81-2.91 225.81-2.62 225.81-2.34 225.45-2.17L225.45-2.17 218.95 0.51Q218.66 0.66 218.45 0.66 218.24 0.66 218.24 0.05L218.24 0.05ZM246.9-7.69L246.9-7.69 246.86-12.84Q246.86-15.99 246.32-17.26 245.78-18.53 244.95-19.18 244.12-19.82 242.72-19.82 241.31-19.82 236.77-17.63L236.77-17.63Q236.16-17.26 236.14-16.94L236.14-16.94 236.14-3.81Q236.14-1.34 238.77-0.98L238.77-0.98Q239.92-0.81 239.92-0.43 239.92-0.05 239.68 0L239.68 0 228.79 0Q228.54-0.05 228.54-0.34L228.54-0.34Q228.54-0.81 229.69-0.98L229.69-0.98Q232.33-1.34 232.33-3.81L232.33-3.81 232.33-17.82Q232.33-18.85 231.21-19.24L231.21-19.24Q230.72-19.41 230.16-19.52 229.59-19.63 229.26-19.73 228.94-19.82 228.85-19.91 228.76-20 228.76-20.28 228.76-20.56 229.13-20.75L229.13-20.75 235.36-23.68Q235.65-23.83 235.72-23.83L235.72-23.83Q236.14-23.83 236.14-23.24L236.14-23.24 236.14-19.43Q236.21-19.19 236.33-19.19L236.33-19.19Q236.48-19.19 237.38-19.63L237.38-19.63Q239.48-20.68 241.61-21.66 243.73-22.63 245.12-22.63L245.12-22.63Q250.76-22.63 250.76-12.35L250.76-12.35 250.54-5.22 250.54-3.81Q250.54-1.9 252.45-1.32L252.45-1.32Q253.25-1.05 254-0.94 254.74-0.83 254.97-0.73 255.2-0.63 255.2-0.34 255.2-0.05 254.96 0L254.96 0 243.19 0Q242.95-0.05 242.95-0.34L242.95-0.34Q242.95-0.81 244.1-0.98L244.1-0.98Q246.71-1.34 246.71-4L246.71-4Q246.9-5.22 246.9-7.69ZM272.46-21.62Q273.54-21.24 273.78-21.24 274.03-21.24 274.09-21.25 274.15-21.26 274.25-21.56L274.25-21.56 274.25-34.16Q274.25-35.18 273.12-35.57L273.12-35.57Q272.63-35.74 272.07-35.85 271.51-35.96 271.18-36.06 270.85-36.16 270.77-36.24 270.68-36.33 270.68-36.61 270.68-36.89 271.05-37.08L271.05-37.08 277.27-40.01Q277.57-40.16 277.64-40.16L277.64-40.16Q278.05-40.16 278.05-39.58L278.05-39.58 278.05-4.81Q278.18-3.74 278.66-3.27 279.15-2.81 280.25-2.81L280.25-2.81 281.67-2.91Q281.81-2.91 281.81-2.62 281.81-2.34 281.45-2.17L281.45-2.17 274.95 0.51Q274.66 0.66 274.45 0.66 274.25 0.66 274.25 0.05L274.25 0.05 274.25-2.17Q274.25-2.42 274.12-2.42L274.12-2.42Q273.95-2.42 272.1-1.32L272.1-1.32Q266.41 2.05 262.5-0.32L262.5-0.32Q259.38-2.22 258.28-6.35L258.28-6.35Q257.77-8.28 257.77-10.44 257.77-12.6 258.66-14.73 259.55-16.87 261.11-18.48L261.11-18.48Q264.55-22 269.41-22L269.41-22Q271.39-22 272.46-21.62ZM261.45-11.15Q261.45-7.45 263.5-4.68 265.55-1.9 269.22-1.9L269.22-1.9Q270.83-1.9 272.54-2.7 274.25-3.49 274.25-3.91L274.25-3.91 274.25-16.5Q274.25-16.97 273.61-17.6L273.61-17.6Q271.66-20.29 268.42-20.29 265.19-20.29 263.32-17.57 261.45-14.84 261.45-11.15ZM302.1-12.87L287.94-12.87Q287.52-12.87 287.52-11.08L287.52-11.08Q287.52-7.3 289.77-4.74 292.02-2.17 295.35-2.17 298.68-2.17 301.76-5.05L301.76-5.05Q301.81-5.1 301.88-5.1L301.88-5.1 302-5.1Q302.15-5.1 302.28-4.87 302.42-4.64 302.54-4.57L302.54-4.57Q299.71-1.12 295.87 0.2L295.87 0.2Q294.56 0.66 292.89 0.66 291.23 0.66 289.53-0.26 287.82-1.17 286.6-2.66L286.6-2.66Q284.01-5.76 284.01-10.39 284.01-15.01 286.83-18.82 289.65-22.63 294.58-22.63L294.58-22.63Q298.12-22.63 300.37-19.47 302.61-16.31 302.61-13.92L302.61-13.92Q302.61-12.87 302.1-12.87L302.1-12.87ZM288.21-15.5L288.21-15.21Q288.21-14.75 288.65-14.75L288.65-14.75 297.85-14.75Q298.49-14.75 298.49-15.5L298.49-15.5Q298.49-17.26 296.91-19.1 295.34-20.95 293.46-20.95L293.46-20.95Q291.63-20.95 290.12-19.29 288.62-17.63 288.21-15.5L288.21-15.5ZM321.55-17.5L321.55-17.5Q321.26-17.55 320.7-17.82L320.7-17.82Q318.67-18.75 317.53-18.75 316.38-18.75 315.12-17.32 313.86-15.89 313.86-14.75L313.86-14.75 313.86-3.71Q313.86-1.88 315.99-1.27L315.99-1.27Q316.92-1.03 317.72-0.92 318.53-0.81 318.76-0.71 318.99-0.61 318.99-0.33 318.99-0.05 318.75 0L318.75 0 306.52 0Q306.27-0.05 306.27-0.34L306.27-0.34Q306.27-0.78 307.42-0.93L307.42-0.93Q310.06-1.32 310.06-3.71L310.06-3.71 310.06-16.63Q310.06-17.65 308.93-18.04L308.93-18.04Q308.44-18.21 307.88-18.32 307.32-18.43 306.99-18.53 306.66-18.63 306.58-18.71 306.49-18.8 306.49-19.08 306.49-19.36 306.86-19.56L306.86-19.56 313.08-22.49Q313.38-22.63 313.45-22.63L313.45-22.63Q313.86-22.63 313.86-22.05L313.86-22.05 313.86-18.09Q313.86-17.8 314.01-17.8L314.01-17.8Q314.21-17.8 315.01-18.95L315.01-18.95Q317.33-22.19 318.84-22.19L318.84-22.19Q319.7-22.19 321.47-21.51 323.24-20.83 323.24-20.36L323.24-20.36Q323.24-19.8 322.68-18.65 322.12-17.5 321.55-17.5Z" opacity="1" transform="matrix(1,0,0,1,0,0)" fill="#6d2687" class="wordmark-text-0" data-fill-palette-color="primary" id="text-0"></path></svg></g></svg></g><g transform="matrix(1,0,0,1,0,61.7902561106716)"><svg viewBox="0 0 159.76456605216669 30.89322847170809" height="30.89322847170809" width="159.76456605216669"><g transform="matrix(1,0,0,1,0,0)"><svg width="159.76456605216669" viewBox="2.25 -26.15 186.94 36.15" height="30.89322847170809" data-palette-color="#5b2687"><path d="M15-26.15L15-26.15Q17.4-26.15 19.4-25.63 21.4-25.1 22.63-24.2 23.85-23.3 23.85-22.25L23.85-22.25Q23.85-21.75 23.48-21.28 23.1-20.8 22.55-20.8L22.55-20.8Q21.9-20.8 21.53-21.1 21.15-21.4 20.8-21.8 20.45-22.2 19.75-22.55L19.75-22.55Q19.1-22.85 17.88-23.1 16.65-23.35 15.15-23.35L15.15-23.35Q12.35-23.35 10.1-21.95 7.85-20.55 6.55-18.18 5.25-15.8 5.25-12.85L5.25-12.85Q5.25-9.85 6.48-7.45 7.7-5.05 9.93-3.68 12.15-2.3 15.05-2.3L15.05-2.3Q17.05-2.3 18.18-2.65 19.3-3 20.05-3.45L20.05-3.45Q21.05-4 21.48-4.53 21.9-5.05 22.6-5.05L22.6-5.05Q23.2-5.05 23.55-4.67 23.9-4.3 23.9-3.7L23.9-3.7Q23.9-2.9 22.73-1.93 21.55-0.95 19.5-0.23 17.45 0.5 14.75 0.5L14.75 0.5Q11.05 0.5 8.22-1.25 5.4-3 3.83-6.03 2.25-9.05 2.25-12.85L2.25-12.85Q2.25-16.5 3.85-19.5 5.45-22.5 8.3-24.33 11.15-26.15 15-26.15ZM53.25-12.8L53.25-12.8Q53.25-9 51.57-5.98 49.9-2.95 47.05-1.23 44.2 0.5 40.6 0.5L40.6 0.5Q37.05 0.5 34.17-1.23 31.3-2.95 29.62-5.98 27.95-9 27.95-12.8L27.95-12.8Q27.95-16.65 29.62-19.65 31.3-22.65 34.17-24.4 37.05-26.15 40.6-26.15L40.6-26.15Q44.2-26.15 47.05-24.4 49.9-22.65 51.57-19.65 53.25-16.65 53.25-12.8ZM50.25-12.8L50.25-12.8Q50.25-15.85 49-18.23 47.75-20.6 45.57-21.98 43.4-23.35 40.6-23.35L40.6-23.35Q37.85-23.35 35.67-21.98 33.5-20.6 32.22-18.23 30.95-15.85 30.95-12.8L30.95-12.8Q30.95-9.75 32.22-7.4 33.5-5.05 35.67-3.68 37.85-2.3 40.6-2.3L40.6-2.3Q43.4-2.3 45.57-3.68 47.75-5.05 49-7.4 50.25-9.75 50.25-12.8ZM71.45-26.15L71.45-26.15Q74.75-26.15 76.72-24.83 78.7-23.5 79.57-21.23 80.45-18.95 80.45-16.2L80.45-16.2 80.45-1.5Q80.45-0.9 80-0.45 79.55 0 78.95 0L78.95 0Q78.25 0 77.85-0.45 77.45-0.9 77.45-1.5L77.45-1.5 77.45-16.05Q77.45-18.05 76.8-19.7 76.15-21.35 74.67-22.35 73.2-23.35 70.8-23.35L70.8-23.35Q68.65-23.35 66.72-22.35 64.8-21.35 63.6-19.7 62.4-18.05 62.4-16.05L62.4-16.05 62.4-1.5Q62.4-0.9 61.95-0.45 61.5 0 60.9 0L60.9 0Q60.2 0 59.8-0.45 59.4-0.9 59.4-1.5L59.4-1.5 59.4-23.9Q59.4-24.5 59.82-24.95 60.25-25.4 60.9-25.4L60.9-25.4Q61.55-25.4 61.97-24.95 62.4-24.5 62.4-23.9L62.4-23.9 62.4-19.7 61.25-17.9Q61.35-19.5 62.27-20.98 63.2-22.45 64.65-23.63 66.1-24.8 67.87-25.48 69.65-26.15 71.45-26.15ZM109.04-25.65L109.04-25.65Q109.69-25.65 110.12-25.2 110.54-24.75 110.54-24.1L110.54-24.1 110.54 8.5Q110.54 9.1 110.09 9.55 109.64 10 109.04 10L109.04 10Q108.34 10 107.94 9.55 107.54 9.1 107.54 8.5L107.54 8.5 107.54-7.45 108.39-8.15Q108.39-6.75 107.64-5.23 106.89-3.7 105.52-2.4 104.14-1.1 102.32-0.3 100.49 0.5 98.34 0.5L98.34 0.5Q95.04 0.5 92.37-1.25 89.69-3 88.14-6 86.59-9 86.59-12.85L86.59-12.85Q86.59-16.65 88.14-19.68 89.69-22.7 92.34-24.43 94.99-26.15 98.29-26.15L98.29-26.15Q100.39-26.15 102.24-25.4 104.09-24.65 105.52-23.35 106.94-22.05 107.77-20.38 108.59-18.7 108.59-16.9L108.59-16.9 107.54-17.65 107.54-24.1Q107.54-24.75 107.94-25.2 108.34-25.65 109.04-25.65ZM98.64-2.3L98.64-2.3Q101.29-2.3 103.34-3.68 105.39-5.05 106.57-7.43 107.74-9.8 107.74-12.85L107.74-12.85Q107.74-15.85 106.57-18.23 105.39-20.6 103.34-21.98 101.29-23.35 98.64-23.35L98.64-23.35Q96.04-23.35 93.97-21.98 91.89-20.6 90.72-18.23 89.54-15.85 89.54-12.85L89.54-12.85Q89.54-9.85 90.72-7.45 91.89-5.05 93.97-3.68 96.04-2.3 98.64-2.3ZM137.49-25.4L137.49-25.4Q138.14-25.4 138.57-24.95 138.99-24.5 138.99-23.9L138.99-23.9 138.99-9.8Q138.99-4.85 136.19-2.25 133.39 0.35 128.64 0.35L128.64 0.35Q123.94 0.35 121.17-2.25 118.39-4.85 118.39-9.8L118.39-9.8 118.39-23.9Q118.39-24.5 118.82-24.95 119.24-25.4 119.89-25.4L119.89-25.4Q120.54-25.4 120.97-24.95 121.39-24.5 121.39-23.9L121.39-23.9 121.39-9.8Q121.39-6.2 123.32-4.33 125.24-2.45 128.64-2.45L128.64-2.45Q132.09-2.45 134.04-4.33 135.99-6.2 135.99-9.8L135.99-9.8 135.99-23.9Q135.99-24.5 136.39-24.95 136.79-25.4 137.49-25.4ZM158.19 0.5L158.19 0.5Q154.34 0.5 151.39-1.15 148.44-2.8 146.79-5.75 145.14-8.7 145.14-12.65L145.14-12.65Q145.14-16.9 146.81-19.9 148.49-22.9 151.16-24.53 153.84-26.15 156.84-26.15L156.84-26.15Q159.04-26.15 161.11-25.38 163.19-24.6 164.79-23.08 166.39-21.55 167.39-19.35 168.39-17.15 168.44-14.25L168.44-14.25Q168.44-13.65 167.99-13.23 167.54-12.8 166.94-12.8L166.94-12.8 146.89-12.8 146.29-15.5 165.99-15.5 165.34-14.9 165.34-15.9Q165.09-18.25 163.79-19.9 162.49-21.55 160.66-22.4 158.84-23.25 156.84-23.25L156.84-23.25Q155.34-23.25 153.76-22.65 152.19-22.05 150.91-20.78 149.64-19.5 148.84-17.53 148.04-15.55 148.04-12.85L148.04-12.85Q148.04-9.9 149.24-7.5 150.44-5.1 152.69-3.7 154.94-2.3 158.14-2.3L158.14-2.3Q159.84-2.3 161.24-2.8 162.64-3.3 163.71-4.13 164.79-4.95 165.49-5.85L165.49-5.85Q166.04-6.3 166.54-6.3L166.54-6.3Q167.09-6.3 167.46-5.9 167.84-5.5 167.84-5L167.84-5Q167.84-4.4 167.34-3.95L167.34-3.95Q165.84-2.15 163.44-0.83 161.04 0.5 158.19 0.5ZM176.14 0L176.14 0Q175.44 0 175.04-0.45 174.64-0.9 174.64-1.5L174.64-1.5 174.64-23.9Q174.64-24.5 175.06-24.95 175.49-25.4 176.14-25.4L176.14-25.4Q176.79-25.4 177.21-24.95 177.64-24.5 177.64-23.9L177.64-23.9 177.64-16.4 176.89-16.25Q177.04-18 177.76-19.73 178.49-21.45 179.74-22.9 180.99-24.35 182.71-25.25 184.44-26.15 186.59-26.15L186.59-26.15Q187.49-26.15 188.34-25.78 189.19-25.4 189.19-24.55L189.19-24.55Q189.19-23.8 188.79-23.4 188.39-23 187.84-23L187.84-23Q187.39-23 186.86-23.25 186.34-23.5 185.49-23.5L185.49-23.5Q184.09-23.5 182.69-22.68 181.29-21.85 180.14-20.45 178.99-19.05 178.31-17.32 177.64-15.6 177.64-13.85L177.64-13.85 177.64-1.5Q177.64-0.9 177.19-0.45 176.74 0 176.14 0Z" opacity="1" transform="matrix(1,0,0,1,0,0)" fill="#5b2687" class="slogan-text-1" data-fill-palette-color="secondary" id="text-1"></path></svg></g></svg></g></svg></g></svg></g><g><svg viewBox="0 0 146.05836521486123 128.08857569284874" height="128.08857569284874" width="146.05836521486123"><g><svg xmlns="http://www.w3.org/2000/svg" xmlns:xlink="http://www.w3.org/1999/xlink" version="1.1" x="0" y="0" viewBox="9.933 11.315 83.44200000000001 73.176" style="enable-background:new 0 0 100 100;" xml:space="preserve" height="128.08857569284874" width="146.05836521486123" class="icon-icon-0" data-fill-palette-color="accent" id="icon-0"><path d="M36.576 23.677l10.777 12.676 2.969 3.493 1.798-4.217 4.376-10.263L56.431 37.68l-0.023 4.267 3.942-1.634 10.959-4.541-8.57 7.252-4.784 4.048 6.199 0.92 12.485 1.852-12.741 2.491-5.235 1.023 3.777 3.766 4.689 4.675-6.501-2.49-4.252-1.629 0.415 4.534 0.802 8.754-5.445-7.26-2.942-3.922-1.931 4.507-2.621 6.117 0.059-7.211 0.05-6.049-4.68 3.833-0.669 0.548 0.492-0.762 3.475-5.388-6.324 1.056L25.287 58.4l10.543-5.97 4.609-2.61-4.728-2.387-9.623-4.859 11.196 0.946 3.858 0.326-0.855-3.777L36.576 23.677M59.405 11.315l-9.892 23.202L31.265 13.053l6.259 27.642L11.768 38.52l22.665 11.444L9.933 63.837l27.59-4.606L27.255 75.151l14.623-11.975-0.176 21.315L49.88 65.41l11.448 15.264-1.715-18.718 18.979 7.269L64.442 55.118l28.933-5.656L64.57 45.189l22.443-18.992L59.265 37.695 59.405 11.315 59.405 11.315z" fill="#872626" data-fill-palette-color="accent"></path></svg></g></svg></g></svg></g><defs></defs></svg><rect width="395.52" height="91.54944531234551" fill="none" stroke="none" visibility="hidden"></rect></g></svg></g></svg>